<!-- Generated by IcoMoon.io -->
<svg version="1.1" xmlns="http://www.w3.org/2000/svg" width="1024" height="1024" viewBox="0 0 1024 1024">
<title></title>
<g id="icomoon-ignore">
</g>
<path fill="#000" d="M363.636 672h-139.546c-70.556 0-128.090-57.308-128.090-128 0-60.652 42.388-111.624 99.232-124.731v0c-2.123-11.433-3.232-23.221-3.232-35.269 0-106.039 85.961-192 192-192 83.694 0 154.881 53.551 181.166 128.257 24.779-20.167 56.395-32.257 90.834-32.257 75.467 0 137.375 58.053 143.502 131.938v0c55.362 14.081 96.498 64.286 96.498 124.062 0 70.549-57.348 128-128.090 128h-139.546l-132.364-224-132.364 224zM647.273 704h120.745c88.356 0 159.982-71.814 159.982-160 0-67.085-41.175-124.528-99.748-148.304v0c-16.731-79.784-87.495-139.696-172.252-139.696-27.613 0-53.74 6.359-76.998 17.692-38.484-67.886-111.394-113.692-195.002-113.692-123.712 0-224 100.288-224 224 0 4.421 0.128 8.812 0.381 13.169v0c-56.712 24.642-96.381 81.203-96.381 146.831 0 88.366 71.44 160 159.982 160h120.745l-56.727 96h416l-56.727-96zM496 512l152 256h-304l152-256zM480 576v96h32v-96h-32zM480 704v32h32v-32h-32z"></path>
</svg>
